<svg xmlns="http://www.w3.org/2000/svg" width="800" height="450" viewBox="0 0 800 450">
  <rect width="800" height="450" fill="#f0f4f8" rx="4" ry="4"/>
  <rect x="20" y="20" width="760" height="40" fill="#e0e6ea" rx="4" ry="4"/>
  <circle cx="45" cy="40" r="10" fill="#ff6b6b"/>
  <circle cx="75" cy="40" r="10" fill="#feca57"/>
  <circle cx="105" cy="40" r="10" fill="#5EB1BF"/>
  
  <!-- Sidebar -->
  <rect x="20" y="80" width="160" height="350" fill="#e0e6ea" rx="4" ry="4"/>
  <rect x="40" y="100" width="120" height="24" fill="#d0d6da" rx="4" ry="4"/>
  <rect x="40" y="140" width="120" height="24" fill="#d0d6da" rx="4" ry="4"/>
  <rect x="40" y="180" width="120" height="24" fill="#d0d6da" rx="4" ry="4"/>
  <rect x="40" y="220" width="120" height="24" fill="#d0d6da" rx="4" ry="4"/>
  
  <!-- Content Area -->
  <rect x="200" y="80" width="580" height="350" fill="#ffffff" rx="4" ry="4"/>
  
  <!-- Header in content -->
  <rect x="240" y="120" width="500" height="60" fill="#f8fdff" rx="4" ry="4"/>
  <rect x="260" y="140" width="160" height="20" fill="#d0d6da" rx="4" ry="4"/>
  
  <!-- Content blocks -->
  <rect x="240" y="200" width="240" height="180" fill="#f8fdff" rx="4" ry="4"/>
  <rect x="260" y="220" width="200" height="20" fill="#d0d6da" rx="4" ry="4"/>
  <rect x="260" y="260" width="200" height="60" fill="#e0e6ea" rx="4" ry="4"/>
  
  <rect x="500" y="200" width="240" height="180" fill="#f8fdff" rx="4" ry="4"/>
  <rect x="520" y="220" width="200" height="20" fill="#d0d6da" rx="4" ry="4"/>
  <rect x="520" y="260" width="200" height="60" fill="#e0e6ea" rx="4" ry="4"/>
</svg> 